<svg width="1280" height="720" viewBox="0 0 1280 720" fill="none" xmlns="http://www.w3.org/2000/svg">
<rect width="1280" height="720" fill="#E4E4E4" fill-opacity="0.45"/>
<rect width="175" height="720" fill="#0A4EE4"/>
<g clip-path="url(#clip0_2021_99)">
<mask id="mask0_2021_99" style="mask-type:luminance" maskUnits="userSpaceOnUse" x="43" y="37" width="90" height="43">
<path d="M132.893 37.2318H43V79.6845H132.893V37.2318Z" fill="white"/>
</mask>
<g mask="url(#mask0_2021_99)">
<path d="M132.281 60.5463H126.565L126.544 68.5412C126.544 72.3859 129.824 73.1677 132.312 73.2711C132.639 73.2843 132.893 73.5569 132.893 73.8837V79.062C132.893 79.4102 132.607 79.6845 132.259 79.6763C127.951 79.5728 124.365 78.4084 122.226 76.2109C119.232 73.1348 119.301 69.6202 119.324 69.3115L119.388 47.2122C119.388 46.8739 119.664 46.6013 120.001 46.6013H126C126.34 46.6013 126.616 46.8788 126.613 47.2188L126.562 54.4845H132.277C132.616 54.4845 132.89 54.7587 132.89 55.0987V59.9337C132.89 60.2721 132.616 60.5463 132.277 60.5463" fill="white"/>
<path d="M79.7324 78.1062L79.7488 43.3412C79.7488 43.0029 79.4746 42.727 79.1362 42.727H73.1253C72.787 42.727 72.5127 43.0013 72.5127 43.3396V78.1045C72.5127 78.4429 72.787 78.7171 73.1253 78.7171H79.1198C79.4581 78.7171 79.7324 78.4429 79.7324 78.1045" fill="white"/>
<path d="M111.829 64.5224C109.989 63.831 107.549 63.3087 105.391 62.9556C104.323 62.7668 103.469 62.4925 102.855 62.1378C101.802 61.6007 101.787 59.937 102.825 59.3327C104.005 58.5328 106.882 58.6067 108.099 59.5051C108.565 59.781 108.938 60.2868 109.206 60.8912C109.296 61.0949 109.521 61.2 109.733 61.1359L115.148 59.487C115.509 59.377 115.682 58.9713 115.519 58.6297C114.837 57.1861 113.776 55.9593 112.328 54.9903C108.792 52.4398 101.498 52.4759 98.1135 55.1217C95.0817 57.0777 94.3263 62.4317 96.6699 65.1925C98.6522 67.5575 101.85 68.4049 104.949 69.0586C104.959 69.0602 104.969 69.0619 104.98 69.0651C106.328 69.2754 108.633 69.7286 109.36 70.2673C110.511 70.9538 110.392 72.5469 109.286 73.2876C108.667 73.7458 107.665 73.9774 106.31 73.9774C103.691 73.9741 101.94 73.0215 101.15 70.8191C101.076 70.6122 100.841 70.4874 100.63 70.5416L95.1737 71.954C94.837 72.041 94.6367 72.3925 94.7385 72.7259C95.3511 74.7131 96.5369 76.3604 98.2728 77.5199C104.106 81.4369 117.115 80.4317 116.925 71.2527C116.925 69.4626 116.455 68.0124 115.527 66.9449C114.619 65.9004 113.374 65.0858 111.827 64.5241" fill="white"/>
<path d="M84.0684 54.1248V78.1062C84.0684 78.4445 84.3426 78.7188 84.6809 78.7188H90.7806C91.1189 78.7188 91.3932 78.4445 91.3932 78.1062V54.1248C91.3932 53.7865 91.1189 53.5122 90.7806 53.5122H84.6809C84.3426 53.5122 84.0684 53.7865 84.0684 54.1248Z" fill="white"/>
<path d="M87.7307 45.2119C85.5267 45.2119 83.7415 43.425 83.7415 41.2227V45.4352C83.7415 47.6393 85.5283 49.4245 87.7307 49.4245C89.9331 49.4245 91.7199 47.6376 91.7199 45.4352V41.2227C91.7199 43.4267 89.9331 45.2119 87.7307 45.2119Z" fill="#E64E36"/>
<path d="M87.7307 45.2119C89.9347 45.2119 91.7199 43.425 91.7199 41.2226C91.7199 39.0203 89.9347 37.2318 87.7307 37.2318C85.5267 37.2318 83.7415 39.0186 83.7415 41.221C83.7415 43.425 85.5283 45.2102 87.7307 45.2102" fill="white"/>
<path d="M56.3144 72.9181C52.5206 72.9181 49.7664 70.1458 49.7664 66.3241C49.7664 62.5861 52.5206 59.873 56.3144 59.873C60.1082 59.873 62.8115 62.5861 62.8115 66.3241C62.8115 70.062 60.0786 72.9181 56.3144 72.9181ZM56.2881 53.1066C48.9502 53.1066 43 59.0567 43 66.3947C43 73.7327 48.9502 79.6828 56.2881 79.6828C63.6261 79.6828 69.5763 73.7327 69.5763 66.3947C69.5763 59.0567 63.6261 53.1049 56.2881 53.1049" fill="white"/>
</g>
</g>
<rect x="984" y="29" width="254" height="51" rx="10" fill="white"/>
<path d="M200 231C200 225.477 204.477 221 210 221H931C936.523 221 941 225.477 941 231V479C941 484.523 936.523 489 931 489H210C204.477 489 200 484.523 200 479V231Z" fill="white"/>
<rect x="797" y="111" width="144" height="85" rx="8" fill="white"/>
<path d="M808.5 127.765C808.5 127.33 808.626 126.905 808.862 126.541C809.098 126.176 809.435 125.888 809.831 125.711C810.228 125.533 810.667 125.475 811.096 125.541C811.526 125.608 811.926 125.798 812.25 126.088C812.398 126.219 812.593 126.286 812.791 126.274C812.988 126.263 813.174 126.173 813.306 126.026C813.438 125.878 813.506 125.684 813.496 125.486C813.485 125.288 813.397 125.102 813.25 124.97C812.883 124.638 812.455 124.382 811.989 124.216C811.523 124.051 811.03 123.979 810.536 124.005C810.042 124.031 809.559 124.155 809.113 124.368C808.667 124.582 808.268 124.882 807.939 125.25C807.609 125.618 807.356 126.048 807.193 126.515C807.03 126.982 806.961 127.476 806.99 127.969C807.019 128.463 807.145 128.946 807.361 129.39C807.578 129.835 807.88 130.232 808.25 130.56C808.398 130.691 808.593 130.758 808.791 130.746C808.988 130.735 809.174 130.645 809.306 130.498C809.438 130.35 809.506 130.156 809.496 129.958C809.485 129.76 809.397 129.574 809.25 129.442C809.013 129.231 808.824 128.973 808.695 128.683C808.566 128.394 808.499 128.081 808.5 127.765ZM818.75 124.015C817.827 124.014 816.937 124.354 816.25 124.97C816.103 125.102 816.015 125.288 816.004 125.486C815.994 125.684 816.062 125.878 816.194 126.026C816.326 126.173 816.511 126.263 816.709 126.274C816.907 126.286 817.101 126.219 817.25 126.088C817.695 125.69 818.28 125.485 818.875 125.518C819.471 125.551 820.03 125.82 820.427 126.265C820.825 126.71 821.03 127.295 820.997 127.891C820.963 128.486 820.695 129.045 820.25 129.443C820.109 129.577 820.026 129.761 820.018 129.956C820.011 130.15 820.079 130.34 820.209 130.485C820.339 130.63 820.52 130.719 820.714 130.733C820.909 130.747 821.101 130.685 821.25 130.56C821.816 130.053 822.215 129.387 822.394 128.649C822.573 127.911 822.524 127.136 822.253 126.426C821.982 125.717 821.502 125.107 820.876 124.676C820.251 124.245 819.509 124.015 818.75 124.015Z" fill="#628DED"/>
<path d="M814.75 127.015C814.258 127.015 813.77 127.112 813.315 127.3C812.86 127.488 812.447 127.765 812.098 128.113C811.75 128.461 811.474 128.874 811.285 129.329C811.097 129.784 811 130.272 811 130.765C811 131.257 811.097 131.745 811.285 132.2C811.474 132.655 811.75 133.068 812.098 133.416C812.447 133.764 812.86 134.041 813.315 134.229C813.77 134.418 814.258 134.515 814.75 134.515C815.745 134.515 816.698 134.119 817.402 133.416C818.105 132.713 818.5 131.759 818.5 130.765C818.5 129.77 818.105 128.816 817.402 128.113C816.698 127.41 815.745 127.015 814.75 127.015ZM808.94 134.741C809.035 134.716 809.125 134.672 809.203 134.613C809.282 134.553 809.348 134.479 809.398 134.394C809.447 134.308 809.48 134.214 809.493 134.117C809.507 134.019 809.501 133.92 809.476 133.825C809.451 133.729 809.408 133.64 809.348 133.561C809.288 133.483 809.214 133.417 809.129 133.367C809.044 133.317 808.95 133.285 808.852 133.271C808.755 133.258 808.655 133.264 808.56 133.289C807.59 133.544 806.724 133.971 806.086 134.545C805.446 135.12 805 135.881 805 136.765C805 136.963 805.079 137.154 805.22 137.295C805.36 137.436 805.551 137.515 805.75 137.515C805.949 137.515 806.14 137.436 806.28 137.295C806.421 137.154 806.5 136.963 806.5 136.765C806.5 136.419 806.67 136.036 807.09 135.66C807.51 135.282 808.144 134.951 808.94 134.741ZM820.94 133.29C820.751 133.247 820.552 133.28 820.386 133.381C820.221 133.482 820.101 133.644 820.051 133.831C820.002 134.019 820.028 134.219 820.123 134.388C820.217 134.557 820.374 134.683 820.56 134.74C821.356 134.95 821.99 135.282 822.41 135.66C822.83 136.036 823 136.42 823 136.765C823 136.963 823.079 137.154 823.22 137.295C823.36 137.436 823.551 137.515 823.75 137.515C823.949 137.515 824.14 137.436 824.28 137.295C824.421 137.154 824.5 136.963 824.5 136.765C824.5 135.881 824.054 135.12 823.414 134.545C822.776 133.971 821.91 133.544 820.94 133.29ZM814.75 136.015C813.257 136.015 811.869 136.377 810.829 137.001C809.804 137.616 809 138.57 809 139.765C809 139.963 809.079 140.154 809.22 140.295C809.36 140.436 809.551 140.515 809.75 140.515C809.949 140.515 810.14 140.436 810.28 140.295C810.421 140.154 810.5 139.963 810.5 139.765C810.5 139.303 810.816 138.758 811.6 138.287C812.37 137.825 813.482 137.515 814.75 137.515C816.018 137.515 817.13 137.825 817.9 138.287C818.684 138.757 819 139.304 819 139.765C819 139.963 819.079 140.154 819.22 140.295C819.36 140.436 819.551 140.515 819.75 140.515C819.949 140.515 820.14 140.436 820.28 140.295C820.421 140.154 820.5 139.963 820.5 139.765C820.5 138.57 819.696 137.615 818.671 137.001C817.631 136.377 816.243 136.015 814.75 136.015Z" fill="#628DED"/>
<rect x="598" y="111" width="144" height="85" rx="8" fill="white"/>
<g opacity="0.8" clip-path="url(#clip1_2021_99)">
<g clip-path="url(#clip2_2021_99)">
<path d="M619.669 123.282C619.887 123.239 620.112 123.239 620.331 123.282C620.582 123.33 620.81 123.449 621.022 123.559L621.075 123.587L629.345 127.867C629.467 127.93 629.569 128.026 629.641 128.143C629.712 128.261 629.75 128.396 629.75 128.533V136.431C629.75 136.714 629.752 137.014 629.657 137.293C629.573 137.536 629.439 137.758 629.262 137.945C629.057 138.159 628.789 138.296 628.539 138.425L628.476 138.458L620.345 142.666C620.238 142.721 620.12 142.75 620 142.75C619.88 142.75 619.762 142.721 619.655 142.666L611.524 138.458L611.461 138.425C611.211 138.296 610.943 138.159 610.738 137.945C610.561 137.758 610.427 137.536 610.343 137.293C610.248 137.013 610.249 136.713 610.25 136.43V128.533C610.25 128.396 610.288 128.261 610.359 128.143C610.431 128.026 610.533 127.93 610.655 127.867L618.924 123.587L618.977 123.56C619.19 123.449 619.417 123.33 619.669 123.282ZM619.895 124.778C619.8 124.823 619.706 124.87 619.613 124.919L612.668 128.514L615.495 129.898L622.851 126.195L620.386 124.919C620.293 124.87 620.199 124.823 620.104 124.778L620.046 124.754M624.496 127.046L617.186 130.726L620 132.102L627.332 128.514L624.496 127.046ZM619.25 140.766V133.406L616.25 131.937V132.937C616.25 133.136 616.171 133.327 616.03 133.467C615.89 133.608 615.699 133.687 615.5 133.687C615.301 133.687 615.11 133.608 614.97 133.467C614.829 133.327 614.75 133.136 614.75 132.937V131.203L611.75 129.735V136.359C611.75 136.546 611.75 136.653 611.755 136.734L611.764 136.812C611.777 136.847 611.796 136.879 611.821 136.907C611.826 136.911 611.842 136.924 611.885 136.949C611.953 136.991 612.048 137.039 612.213 137.125L619.25 140.766Z" fill="#3B71E9"/>
</g>
</g>
<rect x="399" y="111" width="144" height="85" rx="8" fill="white"/>
<g opacity="0.8" clip-path="url(#clip3_2021_99)">
<g clip-path="url(#clip4_2021_99)">
<path d="M418.367 123.25H423.633C424.725 123.25 425.591 123.25 426.288 123.307C427.002 123.365 427.605 123.487 428.157 123.767C429.051 124.223 429.777 124.95 430.232 125.844C430.513 126.394 430.635 126.998 430.693 127.712C430.75 128.409 430.75 129.275 430.75 130.367V135.633C430.75 136.725 430.75 137.591 430.693 138.288C430.635 139.002 430.513 139.605 430.233 140.157C429.777 141.05 429.051 141.777 428.157 142.232C427.605 142.513 427.002 142.635 426.288 142.693C425.591 142.75 424.725 142.75 423.633 142.75H418.367C417.275 142.75 416.409 142.75 415.712 142.693C414.998 142.635 414.395 142.513 413.844 142.233C412.95 141.778 412.223 141.051 411.768 140.157C411.487 139.605 411.365 139.002 411.307 138.288C411.25 137.591 411.25 136.725 411.25 135.633V130.367C411.25 129.275 411.25 128.409 411.307 127.712C411.365 126.998 411.487 126.395 411.767 125.844C412.223 124.95 412.95 124.223 413.844 123.768C414.394 123.487 414.998 123.365 415.712 123.307C416.409 123.25 417.275 123.25 418.367 123.25ZM421.75 127C421.75 126.801 421.671 126.61 421.53 126.47C421.39 126.329 421.199 126.25 421 126.25C420.801 126.25 420.61 126.329 420.47 126.47C420.329 126.61 420.25 126.801 420.25 127V133C420.25 133.284 420.41 133.544 420.665 133.67L424.665 135.67C424.754 135.72 424.851 135.751 424.952 135.762C425.053 135.773 425.156 135.763 425.253 135.734C425.35 135.704 425.44 135.655 425.518 135.589C425.595 135.524 425.659 135.443 425.704 135.352C425.749 135.261 425.776 135.162 425.782 135.06C425.788 134.959 425.773 134.857 425.739 134.762C425.704 134.666 425.651 134.579 425.581 134.505C425.512 134.43 425.428 134.371 425.335 134.33L421.75 132.537V127Z" fill="#3B71E9"/>
</g>
</g>
<rect x="200" y="111" width="144" height="85" rx="8" fill="white"/>
<g opacity="0.8" clip-path="url(#clip5_2021_99)">
<g clip-path="url(#clip6_2021_99)">
<path d="M219.367 123.25H224.633C225.725 123.25 226.591 123.25 227.288 123.307C228.002 123.365 228.605 123.487 229.157 123.767C230.051 124.223 230.777 124.95 231.232 125.844C231.513 126.394 231.635 126.998 231.693 127.712C231.75 128.409 231.75 129.275 231.75 130.367V135.633C231.75 136.725 231.75 137.591 231.693 138.288C231.635 139.002 231.513 139.605 231.233 140.157C230.777 141.05 230.051 141.777 229.157 142.232C228.605 142.513 228.002 142.635 227.288 142.693C226.591 142.75 225.725 142.75 224.633 142.75H219.367C218.275 142.75 217.409 142.75 216.712 142.693C215.998 142.635 215.395 142.513 214.844 142.233C213.95 141.778 213.223 141.051 212.768 140.157C212.487 139.605 212.365 139.002 212.307 138.288C212.25 137.591 212.25 136.725 212.25 135.633V130.367C212.25 129.275 212.25 128.409 212.307 127.712C212.365 126.998 212.487 126.395 212.767 125.844C213.223 124.95 213.95 124.223 214.844 123.768C215.394 123.487 215.998 123.365 216.712 123.307C217.409 123.25 218.275 123.25 219.367 123.25ZM222.75 127C222.75 126.801 222.671 126.61 222.53 126.47C222.39 126.329 222.199 126.25 222 126.25C221.801 126.25 221.61 126.329 221.47 126.47C221.329 126.61 221.25 126.801 221.25 127V133C221.25 133.284 221.41 133.544 221.665 133.67L225.665 135.67C225.754 135.72 225.851 135.751 225.952 135.762C226.053 135.773 226.156 135.763 226.253 135.734C226.35 135.704 226.44 135.655 226.518 135.589C226.595 135.524 226.659 135.443 226.704 135.352C226.749 135.261 226.776 135.162 226.782 135.06C226.788 134.959 226.773 134.857 226.739 134.762C226.704 134.666 226.651 134.579 226.581 134.505C226.512 134.43 226.428 134.371 226.335 134.33L222.75 132.537V127Z" fill="#3B71E9"/>
</g>
</g>
<path d="M255.083 125.548C254.827 125.312 254.527 125.13 254.2 125.012C253.873 124.893 253.526 124.841 253.179 124.858H251.753C251.603 124.41 251.338 124.009 250.985 123.696C250.725 123.46 250.422 123.278 250.092 123.16C249.762 123.041 249.411 122.989 249.061 123.006H242.979C242.617 122.981 242.254 123.03 241.912 123.148C241.569 123.267 241.254 123.453 240.985 123.696C240.636 124.008 240.377 124.41 240.237 124.857H238.831C238.479 124.837 238.126 124.888 237.794 125.006C237.462 125.125 237.157 125.309 236.897 125.547C236.628 125.79 236.41 126.085 236.256 126.413C236.102 126.742 236.015 127.098 236 127.46C236.014 128.752 236.357 130.02 236.997 131.143C237.641 132.291 238.546 133.271 239.639 134.005L240.487 134.575L241.125 134.965C241.652 135.787 242.366 136.473 243.208 136.967V138.727H242.82C242.106 138.727 241.42 139.013 240.916 139.519C240.41 140.026 240.127 140.713 240.128 141.429V141.76C240.127 141.923 240.158 142.085 240.22 142.236C240.281 142.387 240.372 142.524 240.487 142.64C240.72 142.872 241.036 143.002 241.364 143.001H250.636C250.882 143.004 251.122 142.932 251.327 142.795C251.531 142.659 251.689 142.464 251.781 142.236C251.843 142.086 251.874 141.923 251.872 141.76V141.43C251.872 140.713 251.589 140.026 251.084 139.52C250.579 139.015 249.895 138.73 249.181 138.728H248.791V136.957C249.637 136.464 250.355 135.778 250.885 134.955L251.543 134.555L252.351 134.005C253.446 133.267 254.354 132.283 255.003 131.133C255.646 129.996 255.989 128.715 256 127.409C255.948 126.693 255.619 126.025 255.083 125.548ZM238.303 130.42C237.809 129.532 237.545 128.534 237.535 127.518C237.55 127.276 237.636 127.045 237.783 126.852C237.93 126.66 238.131 126.516 238.36 126.438C238.511 126.388 238.672 126.366 238.831 126.378H240.137V131.721C240.146 132.006 240.169 132.29 240.207 132.571C239.427 131.998 238.777 131.264 238.303 130.42ZM248.861 129.201C248.829 129.369 248.745 129.522 248.622 129.641L247.964 130.281L248.124 131.201C248.149 131.364 248.13 131.531 248.069 131.684C248.007 131.837 247.906 131.971 247.775 132.071C247.635 132.163 247.473 132.219 247.306 132.232H247.246C247.1 132.23 246.956 132.192 246.828 132.122L246.01 131.692L245.182 132.122C245.037 132.204 244.87 132.239 244.704 132.222C244.538 132.213 244.378 132.157 244.244 132.059C244.109 131.962 244.006 131.827 243.946 131.672C243.884 131.516 243.867 131.347 243.896 131.182L244.046 130.261L243.388 129.621C243.267 129.505 243.183 129.355 243.148 129.191C243.094 129.028 243.094 128.853 243.148 128.69C243.193 128.534 243.288 128.397 243.418 128.3C243.543 128.187 243.699 128.114 243.866 128.09L244.764 127.96L245.192 127.109C245.259 126.962 245.371 126.839 245.512 126.759C245.653 126.672 245.815 126.626 245.981 126.626C246.146 126.626 246.308 126.672 246.449 126.759C246.595 126.84 246.71 126.967 246.778 127.119L247.196 127.959L248.124 128.089C248.286 128.118 248.436 128.19 248.561 128.298C248.685 128.405 248.778 128.543 248.831 128.699C248.894 128.852 248.904 129.021 248.861 129.18V129.201ZM253.717 130.421C253.234 131.26 252.587 131.992 251.813 132.573C251.851 132.283 251.874 131.993 251.883 131.702V126.378H253.218C253.376 126.367 253.535 126.389 253.684 126.442C253.834 126.496 253.971 126.579 254.086 126.688C254.313 126.888 254.456 127.168 254.485 127.469C254.479 128.502 254.215 129.516 253.717 130.421Z" fill="#628DED"/>
<rect x="975" y="413" width="271" height="291" rx="10" fill="white"/>
<rect x="975" y="111" width="271" height="272" rx="10" fill="white"/>
<rect x="200" y="507" width="460" height="197" rx="10" fill="white"/>
<rect x="678" y="507" width="263" height="197" rx="10" fill="white"/>
<path d="M30.846 217.904H31.379V217.123C31.8457 217.059 32.2413 216.875 32.566 216.571C32.8913 216.268 33.054 215.876 33.054 215.396C33.054 214.98 32.8873 214.632 32.554 214.353C32.2207 214.074 31.8373 213.842 31.404 213.658V211.635C31.596 211.672 31.7623 211.752 31.903 211.875C32.043 211.998 32.1447 212.137 32.208 212.291L32.916 211.992C32.786 211.693 32.5853 211.448 32.314 211.256C32.0427 211.065 31.7393 210.938 31.404 210.877V210.097H30.846V210.871C30.3793 210.918 29.9837 211.079 29.659 211.354C29.3343 211.629 29.1717 211.995 29.171 212.45C29.171 212.875 29.342 213.235 29.684 213.53C30.0253 213.825 30.4127 214.062 30.846 214.242V216.352C30.528 216.295 30.268 216.169 30.066 215.975C29.8633 215.782 29.722 215.552 29.642 215.285L28.941 215.583C29.0743 216.005 29.3077 216.351 29.641 216.622C29.9743 216.893 30.376 217.062 30.846 217.129V217.904ZM31.404 216.346V214.446C31.6373 214.553 31.8443 214.681 32.025 214.831C32.2057 214.981 32.296 215.182 32.296 215.433C32.296 215.72 32.2133 215.93 32.048 216.065C31.8827 216.198 31.668 216.292 31.404 216.346ZM30.846 213.429C30.6247 213.32 30.4163 213.191 30.221 213.042C30.0263 212.893 29.929 212.696 29.929 212.45C29.929 212.183 30.0233 211.988 30.212 211.865C30.4007 211.742 30.612 211.663 30.846 211.629V213.429ZM27 220C25.3287 220 23.911 219.418 22.747 218.255C21.5823 217.091 21 215.674 21 214.004C21 212.334 21.5823 210.916 22.747 209.749C23.9117 208.582 25.3293 207.999 27 208H35C36.6713 208 38.0893 208.582 39.254 209.745C40.4187 210.908 41.0007 212.325 41 213.996C40.9993 215.667 40.417 217.085 39.253 218.251C38.089 219.417 36.6713 220 35 220H27Z" fill="white"/>
<path d="M40.5 256H40V252.622C40 252.225 39.8406 251.844 39.5594 251.562L36.4375 248.441C36.1562 248.159 35.775 248 35.3781 248H34V246.5C34 245.672 33.3281 245 32.5 245H24.5C23.6719 245 23 245.672 23 246.5V248H21.25C21.1125 248 21 248.112 21 248.25V248.75C21 248.888 21.1125 249 21.25 249H29.75C29.8875 249 30 249.112 30 249.25V249.75C30 249.888 29.8875 250 29.75 250H22.25C22.1125 250 22 250.112 22 250.25V250.75C22 250.888 22.1125 251 22.25 251H28.75C28.8875 251 29 251.112 29 251.25V251.75C29 251.888 28.8875 252 28.75 252H21.25C21.1125 252 21 252.112 21 252.25V252.75C21 252.888 21.1125 253 21.25 253H27.75C27.8875 253 28 253.112 28 253.25V253.75C28 253.888 27.8875 254 27.75 254H23V258C23 259.656 24.3438 261 26 261C27.6562 261 29 259.656 29 258H33C33 259.656 34.3438 261 36 261C37.6562 261 39 259.656 39 258H40.5C40.775 258 41 257.775 41 257.5V256.5C41 256.225 40.775 256 40.5 256ZM26 259.5C25.1719 259.5 24.5 258.828 24.5 258C24.5 257.172 25.1719 256.5 26 256.5C26.8281 256.5 27.5 257.172 27.5 258C27.5 258.828 26.8281 259.5 26 259.5ZM36 259.5C35.1719 259.5 34.5 258.828 34.5 258C34.5 257.172 35.1719 256.5 36 256.5C36.8281 256.5 37.5 257.172 37.5 258C37.5 258.828 36.8281 259.5 36 259.5ZM38.5 253H34V249.5H35.3781L38.5 252.622V253Z" fill="white"/>
<path d="M23.6351 294.415L24.6741 292.212C24.7022 292.149 24.748 292.096 24.8058 292.058C24.8637 292.02 24.9311 292 25.0001 292C25.0691 292 25.1365 292.02 25.1944 292.058C25.2523 292.096 25.298 292.149 25.3261 292.212L26.3661 294.415L28.6891 294.771C28.9871 294.816 29.1051 295.2 28.8891 295.42L27.2091 297.133L27.6051 299.554C27.6561 299.865 27.3451 300.102 27.0781 299.955L25.0001 298.812L22.9221 299.955C22.6551 300.102 22.3441 299.865 22.3951 299.555L22.7911 297.133L21.1111 295.42C20.8941 295.2 21.0131 294.816 21.3111 294.77L23.6351 294.415ZM35.6351 294.415L36.6741 292.212C36.7022 292.149 36.748 292.096 36.8058 292.058C36.8637 292.02 36.9311 292 37.0001 292C37.0691 292 37.1365 292.02 37.1944 292.058C37.2523 292.096 37.298 292.149 37.3261 292.212L38.3661 294.415L40.6891 294.771C40.9871 294.816 41.1051 295.2 40.8891 295.42L39.2091 297.133L39.6051 299.554C39.6561 299.865 39.3451 300.102 39.0781 299.955L37.0001 298.812L34.9221 299.955C34.6551 300.102 34.3441 299.865 34.3951 299.555L34.7911 297.133L33.1111 295.42C32.8951 295.2 33.0131 294.816 33.3111 294.77L35.6351 294.415ZM29.6351 285.415L30.6741 283.212C30.7022 283.149 30.748 283.096 30.8058 283.058C30.8637 283.02 30.9311 283 31.0001 283C31.0691 283 31.1365 283.02 31.1944 283.058C31.2523 283.096 31.298 283.149 31.3261 283.212L32.3661 285.415L34.6891 285.771C34.9871 285.816 35.1051 286.2 34.8891 286.42L33.2091 288.133L33.6051 290.554C33.6561 290.865 33.3451 291.102 33.0781 290.955L31.0001 289.812L28.9221 290.955C28.6551 291.102 28.3441 290.865 28.3951 290.555L28.7911 288.133L27.1111 286.42C26.8941 286.2 27.0131 285.816 27.3111 285.77L29.6351 285.415Z" fill="white" stroke="white" stroke-width="1.5" stroke-linecap="round" stroke-linejoin="round"/>
<defs>
<clipPath id="clip0_2021_99">
<rect width="90" height="43" fill="white" transform="translate(43 37)"/>
</clipPath>
<clipPath id="clip1_2021_99">
<rect width="24" height="24" fill="white" transform="translate(608 121)"/>
</clipPath>
<clipPath id="clip2_2021_99">
<rect width="24" height="24" fill="white" transform="translate(608 121)"/>
</clipPath>
<clipPath id="clip3_2021_99">
<rect width="24" height="24" fill="white" transform="translate(409 121)"/>
</clipPath>
<clipPath id="clip4_2021_99">
<rect width="24" height="24" fill="white" transform="translate(409 121)"/>
</clipPath>
<clipPath id="clip5_2021_99">
<rect width="24" height="24" fill="white" transform="translate(210 121)"/>
</clipPath>
<clipPath id="clip6_2021_99">
<rect width="24" height="24" fill="white" transform="translate(210 121)"/>
</clipPath>
</defs>
</svg>
